<svg width="56" height="56" viewBox="0 0 56 56" fill="none" xmlns="http://www.w3.org/2000/svg">
<circle cx="28" cy="28" r="28" fill="#F178B6"/>
<path d="M18.705 26.9339H17.3796C18.1251 21.7154 22.5981 17.7395 27.9822 17.7395C32.041 17.7395 35.7684 20.0588 37.5907 23.6206C37.7564 24.0347 38.2534 24.2004 38.6676 24.0347C39.1645 23.8691 39.3302 23.2892 39.0817 22.8751C37.0109 18.6506 32.7036 16 27.9822 16C21.6041 16 16.3856 20.8043 15.6402 26.9339H14.3148C14.0663 26.9339 13.9835 27.1824 14.0663 27.348L16.3028 30.6613C16.3856 30.827 16.6341 30.827 16.717 30.6613L18.9534 27.348C19.0363 27.1824 18.9534 26.9339 18.705 26.9339Z" fill="white"/>
<path d="M41.8977 29.5017L39.6612 26.1884C39.5784 26.0227 39.3299 26.0227 39.2471 26.1884L37.0106 29.5017C36.9278 29.6673 37.0106 29.9158 37.2591 29.9158H38.5844C37.8389 35.1343 33.366 39.1102 27.9819 39.1102C23.9231 39.1102 20.1956 36.7909 18.3733 33.2291C18.2077 32.8149 17.7107 32.6493 17.2965 32.8149C16.7995 32.9806 16.6339 33.5604 16.8824 33.9746C18.9532 38.1991 23.2604 40.8497 27.9819 40.8497C34.36 40.8497 39.5784 36.0454 40.3239 29.9158H41.6492C41.8977 29.9158 42.0634 29.6673 41.8977 29.5017Z" fill="white"/>
<circle cx="28.0003" cy="28.4248" r="7.54085" fill="white"/>
<rect x="27.4824" y="24.7856" width="1" height="6" rx="0.5" fill="#F178B6"/>
<path d="M24.9008 30.7856C24.8791 29.3697 24.9407 26.538 28.0191 26.538C31.0976 26.538 31.1282 29.412 31.0976 30.7856" stroke="#F178B6" stroke-linecap="round" stroke-linejoin="round"/>
</svg>
