<svg width="56" height="56" viewBox="0 0 56 56" fill="none" xmlns="http://www.w3.org/2000/svg">
<circle cx="28" cy="28" r="28" fill="#6CC24A"/>
<path d="M35.5864 27.8912C35.5469 27.3909 35.1065 26.9777 34.6048 26.97L31.284 26.9191C31.0911 26.9162 30.8955 26.7464 30.8656 26.5558L30.1339 21.9042C30.1074 21.7357 29.9503 21.0486 29.0926 21.0486L24.9629 21.2285C24.4189 21.2521 23.9766 21.5166 23.9766 22.259C23.9766 22.259 23.9593 32.598 23.9381 32.9726L23.7936 35.5307C23.7743 35.8723 23.6412 36.4253 23.503 36.7382L21.8315 40.5215C21.7211 40.7711 21.7229 41.0471 21.8365 41.2786C21.95 41.5102 22.167 41.6807 22.4319 41.7465L22.9884 41.8846C23.0712 41.9052 23.1579 41.9155 23.246 41.9155C23.6952 41.9155 24.1249 41.6548 24.3153 41.2668L25.9042 38.0281C26.0797 37.6704 26.2981 37.0641 26.3911 36.6767L27.2877 32.9419L29.4574 36.26C29.6363 36.5336 29.8254 37.0585 29.8621 37.3834L30.2816 41.0982C30.3413 41.627 30.8229 42.0572 31.3551 42.0572L31.9897 42.055C32.262 42.054 32.5096 41.9454 32.6868 41.7489C32.864 41.5525 32.9469 41.2952 32.92 41.0243L32.4819 36.6077C32.4415 36.2004 32.2952 35.5819 32.1489 35.1996L30.2047 30.1216L30.1927 29.0511L34.7112 28.8839C34.9634 28.8745 35.1939 28.7665 35.3602 28.5798C35.5264 28.3931 35.607 28.1516 35.5871 27.8997L35.5864 27.8912ZM31.3551 41.7443V41.7444V41.7443Z" fill="white"/>
<path d="M26.2833 20.0671C26.6309 20.0671 26.9747 20.0078 27.305 19.8908C28.076 19.618 28.6946 19.0612 29.0467 18.323C29.2957 17.801 29.3896 17.2326 29.3273 16.6719L30.3534 16.5561C30.711 16.5158 31.074 16.2306 31.1977 15.8927L31.5414 14.954C31.6148 14.7535 31.5954 14.5506 31.4883 14.3972C31.3838 14.2477 31.2078 14.162 31.0054 14.162C30.982 14.162 30.9577 14.1631 30.9328 14.1655L27.9657 14.4477C27.4766 14.1255 26.8949 13.9421 26.283 13.9421C25.9355 13.9421 25.5918 14.0013 25.2614 14.1182C24.4905 14.3912 23.8719 14.9481 23.5197 15.6863C23.1675 16.4244 23.1239 17.2555 23.3969 18.0263C23.8292 19.247 24.9891 20.0671 26.2833 20.0671Z" fill="white"/>
<path d="M39.248 24.8594L38.9528 20.616C38.9177 20.1121 38.4783 19.7021 37.9714 19.7021L32.2991 19.712C32.0451 19.7124 31.8117 19.8132 31.6418 19.9957C31.4719 20.1782 31.3879 20.4182 31.4056 20.6715L31.7009 24.9149C31.736 25.4189 32.1754 25.8288 32.6806 25.8288L38.3546 25.8189C38.6086 25.8185 38.842 25.7178 39.0119 25.5353C39.1818 25.3527 39.2657 25.1127 39.248 24.8594Z" fill="white"/>
</svg>
