<svg width="56" height="56" viewBox="0 0 56 56" fill="none" xmlns="http://www.w3.org/2000/svg">
<circle cx="28" cy="28" r="28" fill="#FF9100"/>
<path d="M28 16.75C23.2291 16.75 19.25 18.5039 19.25 21.25C19.25 23.9961 23.2291 25.75 28 25.75C32.7709 25.75 36.75 23.9961 36.75 21.25C36.75 18.5039 32.7709 16.75 28 16.75ZM19.25 25.3281V28C19.25 30.7461 23.2291 32.5 28 32.5C32.7709 32.5 36.75 30.7461 36.75 28V25.3281C34.7659 27.0044 31.6728 28 28 28C24.3272 28 21.2341 27.0044 19.25 25.3281ZM19.25 32.0781V34.75C19.25 37.4961 23.2291 39.25 28 39.25C32.7709 39.25 36.75 37.4961 36.75 34.75V32.0781C34.7659 33.7544 31.6728 34.75 28 34.75C24.3272 34.75 21.2341 33.7544 19.25 32.0781Z" fill="white"/>
</svg>
