<svg width="56" height="56" viewBox="0 0 56 56" fill="none" xmlns="http://www.w3.org/2000/svg">
<circle cx="28" cy="28" r="28" fill="#FFC72C"/>
<path d="M21.4294 18C19.5318 18 18 19.5319 18 21.4295V25.7933C18 26.6878 18.4766 27.794 19.1084 28.4258C20.1681 29.4854 27.5601 36.913 27.5601 36.9118C29.011 38.3628 31.3742 38.3628 32.8251 36.9118L36.9118 32.8251C38.3627 31.3742 38.3627 29.011 36.9118 27.5601L28.4258 19.1084C27.794 18.4766 26.6878 18 25.7933 18H21.4294ZM24.6505 22.4337C25.8753 22.4337 26.8673 23.4257 26.8673 24.6505C26.8673 25.8753 25.8753 26.8674 24.6505 26.8674C23.4257 26.8674 22.4337 25.8753 22.4337 24.6505C22.4337 23.4257 23.4257 22.4337 24.6505 22.4337Z" fill="white"/>
</svg>
