<svg width="56" height="56" viewBox="0 0 56 56" fill="none" xmlns="http://www.w3.org/2000/svg">
<circle cx="28" cy="28" r="28" fill="#7879F1"/>
<path d="M39.9125 26.5875L38.0125 24.6875C37.6875 24.3625 37.425 23.725 37.425 23.275V20.575C37.425 19.475 36.525 18.575 35.425 18.575H32.7375C32.2875 18.575 31.65 18.3125 31.325 17.9875L29.425 16.0875C28.65 15.3125 27.375 15.3125 26.6 16.0875L24.675 17.9875C24.3625 18.3125 23.725 18.575 23.2625 18.575H20.575C19.475 18.575 18.575 19.475 18.575 20.575V23.2625C18.575 23.7125 18.3125 24.35 17.9875 24.675L16.0875 26.575C15.3125 27.35 15.3125 28.625 16.0875 29.4L17.9875 31.3C18.3125 31.625 18.575 32.2625 18.575 32.7125V35.4C18.575 36.5 19.475 37.4 20.575 37.4H23.2625C23.7125 37.4 24.35 37.6625 24.675 37.9875L26.575 39.8875C27.35 40.6625 28.625 40.6625 29.4 39.8875L31.3 37.9875C31.625 37.6625 32.2625 37.4 32.7125 37.4H35.4C36.5 37.4 37.4 36.5 37.4 35.4V32.7125C37.4 32.2625 37.6625 31.625 37.9875 31.3L39.8875 29.4C40.7 28.6375 40.7 27.3625 39.9125 26.5875ZM23 24.25C23 23.5625 23.5625 23 24.25 23C24.9375 23 25.5 23.5625 25.5 24.25C25.5 24.9375 24.95 25.5 24.25 25.5C23.5625 25.5 23 24.9375 23 24.25ZM24.9125 32.4125C24.725 32.6 24.4875 32.6875 24.25 32.6875C24.0125 32.6875 23.775 32.6 23.5875 32.4125C23.225 32.05 23.225 31.45 23.5875 31.0875L31.0875 23.5875C31.45 23.225 32.05 23.225 32.4125 23.5875C32.775 23.95 32.775 24.55 32.4125 24.9125L24.9125 32.4125ZM31.75 33C31.05 33 30.4875 32.4375 30.4875 31.75C30.4875 31.0625 31.05 30.5 31.7375 30.5C32.425 30.5 32.9875 31.0625 32.9875 31.75C32.9875 32.4375 32.4375 33 31.75 33Z" fill="white"/>
</svg>
