<svg width="70" height="70" viewBox="0 0 70 70" fill="none" xmlns="http://www.w3.org/2000/svg">
<circle cx="35" cy="35" r="35" fill="#6CC24A"/>
<path fill-rule="evenodd" clip-rule="evenodd" d="M29.9087 42.6363C28.5087 42.6363 27.3632 43.7818 27.3632 45.1818C27.3632 46.5818 28.5087 47.7273 29.9087 47.7273C31.3087 47.7273 32.4542 46.5818 32.4542 45.1818C32.4542 43.7818 31.3087 42.6363 29.9087 42.6363ZM22.2723 22.2727V24.8182H24.8178L29.3996 34.4909L27.6178 37.5454C27.4905 37.9273 27.3632 38.4363 27.3632 38.8182C27.3632 40.2182 28.5087 41.3636 29.9087 41.3636H45.1814V38.8182H30.4178C30.2905 38.8182 30.1632 38.6909 30.1632 38.5636V38.4363L31.3087 36.2727H40.7269C41.7451 36.2727 42.5087 35.7636 42.8905 34.9999L47.4723 26.7273C47.7269 26.4727 47.7269 26.3454 47.7269 26.0909C47.7269 25.3273 47.2178 24.8182 46.4542 24.8182H27.6178L26.4723 22.2727H22.2723ZM42.6362 42.6364C41.2362 42.6364 40.0907 43.7818 40.0907 45.1818C40.0907 46.5818 41.2362 47.7273 42.6362 47.7273C44.0362 47.7273 45.1816 46.5818 45.1816 45.1818C45.1816 43.7818 44.0362 42.6364 42.6362 42.6364Z" fill="white"/>
</svg>
