<svg width="70" height="70" viewBox="0 0 70 70" fill="none" xmlns="http://www.w3.org/2000/svg">
<circle cx="35" cy="35" r="35" fill="#5D5FEF"/>
<path fill-rule="evenodd" clip-rule="evenodd" d="M46.7105 37.313L36.772 31.8925C36.8028 31.3141 37.123 30.7794 37.6426 30.4873C39.2732 29.5731 40.2846 27.869 40.2846 26.0424C40.2846 23.2119 37.9143 20.9093 35.0005 20.9093C32.0868 20.9093 29.7164 23.2119 29.7164 26.0424C29.7164 26.9882 30.5042 27.7535 31.4778 27.7535C32.4514 27.7535 33.2392 26.9882 33.2392 26.0424C33.2392 25.0984 34.0305 24.3314 35.0005 24.3314C35.9706 24.3314 36.7619 25.0984 36.7619 26.0424C36.7619 26.6524 36.4246 27.2205 35.8812 27.5263C34.2779 28.4268 33.2872 30.0895 33.2528 31.8792L23.2003 37.3665C21.8726 38.1951 20.9092 39.9095 20.9092 41.4418C20.9092 43.3282 22.4882 44.8638 24.4319 44.8638H45.5683C47.5137 44.8638 49.091 43.3282 49.091 41.4418C49.091 39.9095 48.128 38.1951 46.7105 37.313ZM24.4316 41.4418C24.4316 41.0859 24.7962 40.4374 25.0164 40.2971L34.9998 34.8483L44.8938 40.2436C45.2034 40.4357 45.568 41.0841 45.5645 41.4418H24.4316Z" fill="white"/>
</svg>
