<svg width="70" height="70" viewBox="0 0 70 70" fill="none" xmlns="http://www.w3.org/2000/svg">
<circle cx="35" cy="35" r="35" fill="#0072CE"/>
<path fill-rule="evenodd" clip-rule="evenodd" d="M44.0114 25.4458H43.8735V24.8983C43.8735 23.4757 42.579 22.3184 40.9877 22.3184H36.53C34.9387 22.3184 33.6442 23.4757 33.6442 24.8983V25.4458H31.9302C31.6502 25.4458 31.3818 25.5453 31.1835 25.7222L25.4603 30.839C25.2624 31.016 25.1512 31.256 25.1512 31.5065V46.2951C25.1512 47.0598 25.847 47.682 26.7024 47.682H44.0116C44.8669 47.682 45.5629 47.0599 45.5629 46.2951V26.8326C45.5626 26.0679 44.8667 25.4458 44.0114 25.4458ZM36.1421 24.6433C36.1421 24.1841 36.5054 23.8103 36.9517 23.8103H41.613C42.0594 23.8103 42.4226 24.1841 42.4226 24.6433V25.3023H36.1421V24.6433ZM25.2493 29.5464L24.7563 29.2381C24.3236 28.8269 24.3236 28.1601 24.7563 27.749C24.7563 27.749 27.762 24.8927 27.9699 24.6953C28.1778 24.4979 28.4596 24.387 28.7536 24.387C29.0475 24.387 29.2465 24.6953 29.2465 24.6953C29.6793 25.1065 29.6793 25.7733 29.2465 26.1844L26.033 29.2381C25.8249 29.4355 25.5432 29.5464 25.2493 29.5464Z" fill="white"/>
</svg>
