<svg width="70" height="70" viewBox="0 0 70 70" fill="none" xmlns="http://www.w3.org/2000/svg">
<circle cx="35" cy="35" r="35" fill="#FF9100"/>
<path fill-rule="evenodd" clip-rule="evenodd" d="M36.8911 21.7765C36.8911 21.2974 37.2909 20.9091 37.7841 20.9091C38.2773 20.9091 38.6771 21.2974 38.6771 21.7765V27.8488H40.4632V21.7765C40.4632 21.2974 40.8631 20.9091 41.3563 20.9091C41.8495 20.9091 42.2493 21.2974 42.2493 21.7765V27.8488H44.0354V21.7765C44.0354 21.2974 44.4352 20.9091 44.9284 20.9091C45.4217 20.9091 45.8215 21.2974 45.8215 21.7765V32.1862C45.8215 33.6235 44.622 34.7886 43.1424 34.7886H42.8447L43.8121 46.0658C43.8841 46.9629 43.4321 47.8235 42.6421 48.2934C41.8521 48.7634 40.8575 48.7634 40.0675 48.2934C39.2775 47.8235 38.8255 46.9629 38.8974 46.0658L39.8679 34.7886H39.5702C38.0906 34.7886 36.8911 33.6235 36.8911 32.1862V21.7765ZM33.1088 27.8488C33.1088 24.0175 31.1084 20.9091 28.6436 20.9091C26.1788 20.9091 24.1783 24.0175 24.1783 27.8488C24.1783 30.885 25.4435 33.4411 27.1909 34.3809L26.1877 46.0658C26.1158 46.9629 26.5678 47.8235 27.3578 48.2934C28.1478 48.7634 29.1423 48.7634 29.9323 48.2934C30.7223 47.8235 31.1743 46.9629 31.1024 46.0658L30.0962 34.3809C31.8436 33.4411 33.1088 30.885 33.1088 27.8488Z" fill="white"/>
</svg>
